<svg width="219" height="32" viewBox="0 0 219 32" fill="none" xmlns="http://www.w3.org/2000/svg">
<path d="M5.34707 8.79393V19.4881H10.6941C11.427 19.4881 12.1163 19.3514 12.7622 19.0782C13.408 18.7925 13.9732 18.4075 14.4576 17.9231C14.942 17.4387 15.3208 16.8735 15.5941 16.2277C15.8797 15.5694 16.0226 14.8738 16.0226 14.141C16.0226 13.4082 15.8797 12.7188 15.5941 12.073C15.3208 11.4147 14.942 10.8433 14.4576 10.3589C13.9732 9.87452 13.408 9.49569 12.7622 9.22244C12.1163 8.93676 11.427 8.79393 10.6941 8.79393H5.34707ZM5.34707 30.1636H0V3.44686H10.6941C11.6754 3.44686 12.6193 3.57728 13.526 3.83811C14.4327 4.08652 15.2773 4.44672 16.0598 4.9187C16.8548 5.37826 17.5751 5.93719 18.221 6.59548C18.8793 7.24135 19.4382 7.96175 19.8978 8.75667C20.3698 9.55158 20.73 10.4024 20.9784 11.3091C21.2392 12.2158 21.3696 13.1598 21.3696 14.141C21.3696 15.6066 21.0902 16.9915 20.5312 18.2957C19.9723 19.5874 19.2085 20.7177 18.2396 21.6865C17.2708 22.6553 16.1344 23.4192 14.8302 23.9781C13.5385 24.537 12.1598 24.8165 10.6941 24.8165H5.34707V30.1636Z" fill="#EE26C2"/>
<path d="M29.9771 4.78828C29.9771 5.26027 29.884 5.7012 29.6977 6.11108C29.5238 6.52096 29.2816 6.88116 28.971 7.19167C28.6605 7.48976 28.2941 7.73197 27.8718 7.91828C27.4619 8.09216 27.021 8.17911 26.549 8.17911C26.077 8.17911 25.6299 8.09216 25.2076 7.91828C24.7977 7.73197 24.4375 7.48976 24.127 7.19167C23.8289 6.88116 23.5867 6.52096 23.4004 6.11108C23.2265 5.7012 23.1396 5.26027 23.1396 4.78828C23.1396 4.32872 23.2265 3.894 23.4004 3.48412C23.5867 3.06182 23.8289 2.70162 24.127 2.40353C24.4375 2.09301 24.7977 1.85081 25.2076 1.67692C25.6299 1.49062 26.077 1.39746 26.549 1.39746C27.021 1.39746 27.4619 1.49062 27.8718 1.67692C28.2941 1.85081 28.6605 2.09301 28.971 2.40353C29.2816 2.70162 29.5238 3.06182 29.6977 3.48412C29.884 3.894 29.9771 4.32872 29.9771 4.78828ZM29.1015 30.1636H23.978V10.2099H29.1015V30.1636Z" fill="#EE26C2"/>
<path d="M38.0816 30.1636H32.9953V10.2099H34.225L35.9017 12.1475C36.7215 11.4023 37.6468 10.8309 38.6777 10.4334C39.7211 10.0236 40.8079 9.81863 41.9382 9.81863C43.1554 9.81863 44.3043 10.0546 45.3849 10.5266C46.4655 10.9862 47.4094 11.6258 48.2168 12.4456C49.0241 13.2529 49.6576 14.2031 50.1171 15.2961C50.5891 16.3767 50.8251 17.5318 50.8251 18.7615V30.1636H45.7389V18.7615C45.7389 18.2398 45.6395 17.7492 45.4408 17.2896C45.242 16.8176 44.9688 16.4078 44.621 16.06C44.2732 15.7122 43.8696 15.4389 43.41 15.2402C42.9504 15.0415 42.4598 14.9421 41.9382 14.9421C41.4041 14.9421 40.901 15.0415 40.429 15.2402C39.9571 15.4389 39.5472 15.7122 39.1994 16.06C38.8516 16.4078 38.5784 16.8176 38.3797 17.2896C38.1809 17.7492 38.0816 18.2398 38.0816 18.7615V30.1636Z" fill="#EE26C2"/>
<path d="M59.5816 30.1636H54.4581V2.27311H59.5816V19.8607L67.1644 10.2471H73.0145L66.4005 18.5565L73.0145 30.1636H67.1644L63.1215 22.9161L59.5816 27.6111V30.1636Z" fill="#EE26C2"/>
<path fill-rule="evenodd" clip-rule="evenodd" d="M99.4197 4.17544C98.9006 3.79762 98.3547 3.45298 97.7847 3.14465C94.9385 1.60511 91.6626 1.06292 88.4783 1.59808C88.4266 1.60652 88.375 1.61526 88.3233 1.62429C87.11 1.83174 85.9358 2.19239 84.8009 2.70624C83.6659 3.2201 82.6119 3.86827 81.6388 4.65074C80.6824 5.42567 79.8236 6.32734 79.0624 7.35577C78.3133 8.38877 77.7059 9.52357 77.2401 10.7602C76.7743 11.9968 76.482 13.2503 76.3634 14.5208C76.2615 15.7837 76.3119 17.0279 76.5148 18.2534C76.7344 19.4713 77.1011 20.6477 77.6149 21.7826C77.6933 21.9558 77.7747 22.1271 77.8591 22.2964C78.338 23.2722 78.9282 24.1973 79.6226 25.0521C81.7389 27.6572 84.693 29.4478 87.9815 30.119C91.27 30.7901 94.6896 30.3002 97.6574 28.7328C100.625 27.1654 102.958 24.6174 104.258 21.523L99.0572 19.3386C98.2085 21.3537 96.6287 23.0221 94.5941 23.9584L94.5761 23.8632C93.8332 24.2186 93.0281 24.4762 92.1745 24.6169C91.0708 24.7988 89.981 24.7695 88.9464 24.5587C85.5234 23.7917 82.7404 21.0201 82.1349 17.3464C81.3387 12.5153 84.6096 7.95343 89.4407 7.15719C92.2422 6.69547 94.9531 7.60137 96.8918 9.38605C97.8184 10.2725 98.5599 11.3634 99.0384 12.6029L104.96 10.3917L104.988 10.4666C105.828 9.53607 106.723 8.45571 107.642 7.31606C105.82 7.21157 104.092 7.14082 102.627 7.1777C103.027 5.66425 103.363 3.77951 103.684 1.77293C102.115 2.59986 100.638 3.40823 99.4197 4.17544Z" fill="black"/>
<path d="M114.835 30.0359H109.699V1.88386H114.835V10.7789C115.45 10.315 116.084 9.98908 116.736 9.80103C117.388 9.60043 118.053 9.50014 118.73 9.50014C119.972 9.50014 121.139 9.73834 122.23 10.2148C123.321 10.6786 124.268 11.3243 125.071 12.1517C125.887 12.9666 126.526 13.9257 126.99 15.029C127.467 16.1197 127.705 17.2857 127.705 18.5268V30.0359H122.531V18.5268H122.569C122.569 18.0003 122.468 17.5051 122.268 17.0412C122.067 16.5648 121.791 16.1511 121.44 15.8C121.089 15.449 120.681 15.1732 120.217 14.9726C119.753 14.772 119.257 14.6717 118.73 14.6717C118.191 14.6717 117.683 14.772 117.206 14.9726C116.73 15.1732 116.316 15.449 115.964 15.8C115.613 16.1511 115.337 16.5648 115.137 17.0412C114.936 17.5051 114.835 18.0003 114.835 18.5268V30.0359Z" fill="black"/>
<path d="M137.433 4.42262C137.433 4.89903 137.339 5.3441 137.151 5.75782C136.975 6.17154 136.731 6.53512 136.417 6.84855C136.104 7.14944 135.734 7.39391 135.307 7.58196C134.893 7.75748 134.448 7.84524 133.971 7.84524C133.495 7.84524 133.043 7.75748 132.616 7.58196C132.202 7.39391 131.839 7.14944 131.525 6.84855C131.224 6.53512 130.979 6.17154 130.791 5.75782C130.616 5.3441 130.528 4.89903 130.528 4.42262C130.528 3.95875 130.616 3.51995 130.791 3.10623C130.979 2.67997 131.224 2.31639 131.525 2.0155C131.839 1.70208 132.202 1.4576 132.616 1.28208C133.043 1.09403 133.495 1 133.971 1C134.448 1 134.893 1.09403 135.307 1.28208C135.734 1.4576 136.104 1.70208 136.417 2.0155C136.731 2.31639 136.975 2.67997 137.151 3.10623C137.339 3.51995 137.433 3.95875 137.433 4.42262ZM136.549 30.0359H131.375V9.89505H136.549V30.0359Z" fill="black"/>
<path d="M158.093 13.9007L154.33 17.6806C154.142 17.154 153.885 16.6839 153.558 16.2702C153.232 15.8439 152.862 15.4866 152.448 15.1982C152.047 14.9099 151.608 14.6905 151.131 14.54C150.655 14.3896 150.165 14.3144 149.664 14.3144C148.961 14.3144 148.296 14.4586 147.669 14.7469C147.054 15.0353 146.515 15.4427 146.051 15.9693C145.599 16.4833 145.242 17.0976 144.978 17.8122C144.715 18.5268 144.583 19.3167 144.583 20.1817C144.583 20.8838 144.715 21.542 144.978 22.1563C145.242 22.7706 145.599 23.3097 146.051 23.7736C146.515 24.2375 147.054 24.601 147.669 24.8643C148.296 25.1276 148.961 25.2592 149.664 25.2592C150.165 25.2592 150.648 25.1903 151.112 25.0524C151.577 24.9145 152.009 24.7201 152.411 24.4694C152.825 24.2061 153.188 23.8927 153.502 23.5291C153.828 23.153 154.092 22.7393 154.292 22.288L158.055 26.0679C157.579 26.7449 157.027 27.3529 156.4 27.892C155.785 28.4311 155.114 28.8887 154.386 29.2648C153.671 29.6409 152.912 29.923 152.11 30.1111C151.319 30.3117 150.504 30.412 149.664 30.412C148.246 30.412 146.91 30.1487 145.656 29.6221C144.414 29.083 143.323 28.3496 142.382 27.4219C141.454 26.4941 140.72 25.4097 140.18 24.1685C139.641 22.9273 139.371 21.5984 139.371 20.1817C139.371 18.6397 139.641 17.1979 140.18 15.8564C140.72 14.515 141.454 13.349 142.382 12.3586C143.323 11.3556 144.414 10.5658 145.656 9.98908C146.91 9.41238 148.246 9.12402 149.664 9.12402C150.504 9.12402 151.326 9.23059 152.128 9.44372C152.944 9.65685 153.715 9.97028 154.443 10.384C155.183 10.7852 155.86 11.2804 156.475 11.8696C157.102 12.4589 157.642 13.1359 158.093 13.9007Z" fill="black"/>
<path d="M165.789 30.0359H160.614V1.88386H165.789V19.6364L173.447 9.93267H179.355L172.675 18.32L179.355 30.0359H173.447L169.364 22.7205L165.789 27.4595V30.0359Z" fill="black"/>
<path d="M188.763 25.1088C188.964 25.1715 189.164 25.2154 189.365 25.2404C189.566 25.253 189.766 25.2592 189.967 25.2592C190.469 25.2592 190.952 25.1903 191.416 25.0524C191.88 24.9145 192.313 24.7201 192.714 24.4694C193.128 24.2061 193.492 23.8927 193.806 23.5291C194.132 23.153 194.395 22.7393 194.596 22.288L198.359 26.0679C197.882 26.7449 197.33 27.3529 196.703 27.892C196.089 28.4311 195.417 28.8887 194.69 29.2648C193.975 29.6409 193.216 29.923 192.413 30.1111C191.623 30.3117 190.808 30.412 189.967 30.412C188.55 30.412 187.214 30.1487 185.959 29.6221C184.718 29.0956 183.626 28.3622 182.685 27.4219C181.757 26.4816 181.023 25.3658 180.484 24.0745C179.945 22.7706 179.675 21.3414 179.675 19.7868C179.675 18.1946 179.945 16.7403 180.484 15.4239C181.023 14.1075 181.757 12.9854 182.685 12.0577C183.626 11.13 184.718 10.4091 185.959 9.89505C187.214 9.38103 188.55 9.12402 189.967 9.12402C190.808 9.12402 191.629 9.22432 192.432 9.42491C193.235 9.62551 193.994 9.91386 194.709 10.29C195.436 10.6661 196.114 11.13 196.741 11.6816C197.368 12.2207 197.92 12.8287 198.397 13.5057L188.763 25.1088ZM191.397 14.5212C191.159 14.4335 190.92 14.3771 190.682 14.352C190.456 14.3269 190.218 14.3144 189.967 14.3144C189.265 14.3144 188.6 14.446 187.973 14.7093C187.358 14.96 186.819 15.3236 186.354 15.8C185.903 16.2764 185.545 16.8531 185.282 17.5301C185.019 18.1946 184.887 18.9468 184.887 19.7868C184.887 19.9749 184.893 20.188 184.906 20.4262C184.931 20.6644 184.962 20.9089 185 21.1596C185.05 21.3978 185.106 21.6298 185.169 21.8554C185.232 22.0811 185.313 22.2817 185.414 22.4572L191.397 14.5212Z" fill="black"/>
<path d="M206.13 30.0359H200.993V9.89505H202.235L203.929 11.8508C204.756 11.0986 205.691 10.5219 206.732 10.1207C207.786 9.707 208.883 9.50014 210.025 9.50014C211.254 9.50014 212.414 9.73834 213.506 10.2148C214.597 10.6786 215.55 11.3243 216.366 12.1517C217.181 12.9666 217.821 13.9257 218.285 15.029C218.762 16.1197 219 17.2857 219 18.5268V30.0359H213.863V18.5268C213.863 18.0003 213.763 17.5051 213.562 17.0412C213.362 16.5648 213.086 16.1511 212.734 15.8C212.383 15.449 211.975 15.1732 211.511 14.9726C211.047 14.772 210.552 14.6717 210.025 14.6717C209.485 14.6717 208.977 14.772 208.501 14.9726C208.024 15.1732 207.61 15.449 207.259 15.8C206.908 16.1511 206.632 16.5648 206.431 17.0412C206.23 17.5051 206.13 18.0003 206.13 18.5268V30.0359Z" fill="black"/>
</svg>
